<svg width="0" height="0" class="hidden">
  <symbol xmlns="http://www.w3.org/2000/svg" viewBox="0 0 15 11" id="arrow">
    <path fill-rule="evenodd" clip-rule="evenodd" d="M8.92455 0L14.2781 5.35355L8.92455 10.7071L8.21745 10L12.3639 5.85355H0V4.85355H12.3639L8.21745 0.707107L8.92455 0Z" ></path>
  </symbol>
  <symbol xmlns="http://www.w3.org/2000/svg" viewBox="0 0 47 46" id="behance">
    <path d="M26.7188 16.0163H33.1086V17.4979H26.7188V16.0163ZM20.3164 21.8785C21.7288 21.2325 22.4687 20.2499 22.4687 18.7315C22.4687 15.7285 20.1305 15 17.4306 15H10V30.0733H17.6387C20.5022 30.0733 23.1893 28.7568 23.1893 25.6958C23.1893 23.8039 22.2541 22.4049 20.3164 21.8785ZM13.4655 17.5714H16.7163C17.9687 17.5714 19.0928 17.9051 19.0928 19.2948C19.0928 20.5744 18.2185 21.0886 16.9789 21.0886H13.4655V17.5714ZM17.1648 27.5142H13.4623V23.3631H17.2385C18.763 23.3631 19.7271 23.9723 19.7271 25.5152C19.7271 27.0336 18.5772 27.5142 17.1648 27.5142ZM35.6068 24.7743C35.6068 21.5448 33.6307 18.854 30.0562 18.854C26.581 18.854 24.2174 21.355 24.2174 24.6335C24.2174 28.0314 26.4562 30.3641 30.0562 30.3641C32.7819 30.3641 34.5467 29.1916 35.3953 26.6907H32.6313C32.3302 27.6242 31.1068 28.1141 30.1556 28.1141C28.3172 28.1141 27.3563 27.0857 27.3563 25.3376H35.5843C35.5939 25.157 35.6068 24.9672 35.6068 24.7743ZM27.3563 23.4458C27.4555 22.0101 28.458 21.1132 29.957 21.1132C31.5328 21.1132 32.3207 21.9979 32.4584 23.4458H27.3563Z" ></path>
  </symbol>
  <symbol xmlns="http://www.w3.org/2000/svg" viewBox="0 0 102 30" id="clutch">
    <g clip-path="url(#clip0_562_21)">
      <path d="M26.5508 0H31.1922V29.0088H26.5508V0ZM47.4371 19.755C47.4371 24.1945 43.7043 24.5484 42.5938 24.5484C39.8194 24.5484 39.3146 21.9515 39.3146 20.3851V9.28282H34.6732V20.3619C34.6732 23.1119 35.5365 25.3815 37.0496 26.8946C38.3864 28.2325 40.3891 28.9635 42.559 28.9635C44.0976 28.9635 46.2767 28.4843 47.4371 27.4249V29.0088H52.0785V9.28282H47.4371V19.755ZM61.3613 2.3207H56.7199V9.28282H53.2389V13.9242H56.7199V29.0088H61.3613V13.9242H64.8424V9.28282H61.3613V2.3207ZM79.4593 23.1107C78.4486 24.0193 77.1142 24.5229 75.6499 24.5229C72.4218 24.5229 70.0512 22.1523 70.0512 18.8975C70.0512 15.6427 72.3464 13.3719 75.6499 13.3719C77.0887 13.3719 78.4486 13.8511 79.4848 14.7597L80.1892 15.3654L83.3186 12.2371L82.5354 11.5304C80.6939 9.86763 78.2491 8.93471 75.6487 8.93471C69.847 8.93471 65.6337 13.1213 65.6337 18.8731C65.6337 24.6006 69.9479 28.9369 75.6487 28.9369C78.2978 28.9369 80.7682 28.0039 82.5865 26.3145L83.343 25.6078L80.1648 22.4818L79.4593 23.1107ZM99.885 11.0025C98.5482 9.66573 96.9818 8.93471 94.8119 8.93471C93.2733 8.93471 91.5304 9.41394 90.3701 10.4722V0H85.7287V29.0088H90.3701V18.1421C90.3701 13.7026 93.5239 13.3498 94.6344 13.3498C97.4088 13.3498 97.3322 15.9479 97.3322 17.512V29.0088H101.974V17.5364C101.974 14.7864 101.399 12.5167 99.885 11.0025Z" ></path>
      <path d="M75.4964 15.5928C76.3864 15.5928 77.2399 15.9463 77.8692 16.5756C78.4986 17.205 78.8521 18.0585 78.8521 18.9485C78.8521 19.8385 78.4986 20.692 77.8692 21.3214C77.2399 21.9507 76.3864 22.3042 75.4964 22.3042C74.6064 22.3042 73.7528 21.9507 73.1235 21.3214C72.4942 20.692 72.1406 19.8385 72.1406 18.9485C72.1406 18.0585 72.4942 17.205 73.1235 16.5756C73.7528 15.9463 74.6064 15.5928 75.4964 15.5928Z" fill="#FF3D2E"></path>
      <path d="M20.0523 21.723C18.2874 23.5389 15.8901 24.5229 13.3675 24.5229C8.19695 24.5229 4.43741 20.4617 4.43741 14.8873C4.43741 9.28747 8.19695 5.22623 13.3675 5.22623C15.8657 5.22623 18.2363 6.20905 20.0279 8.00064L20.7334 8.70729L23.8362 5.60451L23.155 4.89785C20.5825 2.24877 17.1015 0.812256 13.3675 0.812256C5.74977 0.812256 0.0234375 6.86581 0.0234375 14.9117C0.0234375 22.9332 5.7753 28.9624 13.3675 28.9624C17.127 28.9624 20.6081 27.5003 23.1806 24.8513L23.8617 24.1446L20.7844 20.9919L20.0523 21.723Z" ></path>
    </g>
    <defs>
      <clipPath id="clip0_562_21">
        <rect width="102" height="29.0088" ></rect>
      </clipPath>
    </defs>
  </symbol>
  <symbol xmlns="http://www.w3.org/2000/svg" viewBox="0 0 47 46" id="dribble">
    <path d="M23.5 34C17.7133 34 13 29.2867 13 23.5C13 17.7133 17.7133 13 23.5 13C29.2867 13 34 17.7133 34 23.5C34 29.2867 29.2867 34 23.5 34ZM32.3573 24.9373C32.0493 24.8393 29.5807 24.102 26.7667 24.5547C27.938 27.7793 28.4187 30.402 28.512 30.948C30.5233 29.5853 31.956 27.4293 32.3573 24.9373ZM27.0047 31.7693C26.8693 30.9853 26.3467 28.2413 25.0913 24.97L25.0353 24.9887C19.972 26.7527 18.1567 30.262 18.0027 30.5933C19.5147 31.7787 21.4327 32.488 23.5047 32.488C24.7413 32.4833 25.922 32.2313 27.0047 31.7693ZM16.8407 29.5107C17.0413 29.1607 19.5053 25.0867 24.13 23.5887C24.2467 23.5467 24.3633 23.514 24.48 23.4813C24.256 22.968 24.0087 22.4593 23.752 21.96C19.2767 23.2947 14.932 23.2433 14.5353 23.2293L14.5307 23.5047C14.5353 25.8147 15.408 27.9193 16.8407 29.5107ZM14.7173 21.6753C15.1187 21.6847 18.8147 21.6987 23.01 20.5833C21.5213 17.942 19.9207 15.7207 19.6827 15.394C17.1767 16.5793 15.3053 18.8893 14.7173 21.6753ZM21.4 14.7967C21.6473 15.1327 23.276 17.3447 24.7413 20.0467C27.9287 18.852 29.282 17.0367 29.4453 16.808C27.8587 15.394 25.7773 14.5447 23.5 14.5447C22.7767 14.5447 22.0767 14.6287 21.4 14.7967ZM30.444 17.844C30.2573 18.096 28.75 20.0233 25.4367 21.3767C25.6467 21.806 25.8473 22.24 26.034 22.6787C26.104 22.8373 26.1647 22.9913 26.2253 23.1407C29.212 22.7627 32.1753 23.3693 32.474 23.43C32.4553 21.3113 31.704 19.37 30.4533 17.844H30.444Z" ></path>
  </symbol>
  <symbol xmlns="http://www.w3.org/2000/svg" viewBox="0 0 46 46" id="linkedin">
    <path d="M31.9957 32V31.9993H32V25.368C32 22.124 31.3277 19.625 27.6765 19.625C25.9213 19.625 24.7435 20.6255 24.2626 21.574H24.2118V19.9279H20.75V31.9993H24.3547V26.0219C24.3547 24.4481 24.6419 22.9263 26.5183 22.9263C28.367 22.9263 28.3946 24.7224 28.3946 26.1229V32H31.9957Z" ></path>
    <path d="M14 19.625H18.5V32H14V19.625Z" ></path>
    <path d="M16.25 14C15.0079 14 14 15.0032 14 16.2395C14 17.4758 15.0079 18.5 16.25 18.5C17.4921 18.5 18.5 17.4758 18.5 16.2395C18.4992 15.0032 17.4913 14 16.25 14Z" ></path>
  </symbol>
  <symbol xmlns="http://www.w3.org/2000/svg" viewBox="0 0 47 46" id="instagram">
    <path d="M27.0332 14H18.9668C17.6499 14.0014 16.3874 14.5251 15.4563 15.4563C14.5251 16.3874 14.0014 17.6499 14 18.9668V27.0319C14.0014 28.3489 14.5251 29.6115 15.4562 30.5428C16.3873 31.4743 17.6498 31.9983 18.9668 32H27.0332C28.3502 31.9983 29.6127 31.4743 30.5438 30.5428C31.4749 29.6115 31.9986 28.3489 32 27.0319V18.9668C31.9986 17.6499 31.4749 16.3874 30.5437 15.4563C29.6126 14.5251 28.3501 14.0014 27.0332 14ZM22.9993 27.0812C22.185 27.0812 21.3888 26.8396 20.7115 26.3871C20.0343 25.9346 19.5066 25.2914 19.1949 24.5389C18.8833 23.7865 18.8019 22.9585 18.9609 22.1596C19.1198 21.3608 19.5122 20.6271 20.0882 20.0512C20.6642 19.4755 21.398 19.0834 22.1968 18.9247C22.9957 18.7659 23.8237 18.8476 24.5761 19.1595C25.3285 19.4714 25.9714 19.9994 26.4237 20.6767C26.876 21.3541 27.1173 22.1503 27.1171 22.9647C27.1146 24.056 26.6799 25.1018 25.9082 25.8733C25.1365 26.6448 24.0906 27.079 22.9993 27.0812ZM29.0628 18.6048C28.8711 18.7964 28.6189 18.9154 28.3492 18.942C28.0796 18.9684 27.8091 18.9004 27.5839 18.7498C27.3586 18.5992 27.1926 18.3751 27.1141 18.1158C27.0356 17.8564 27.0494 17.5779 27.1532 17.3276C27.257 17.0773 27.4444 16.8708 27.6835 16.7432C27.9224 16.6155 28.1984 16.5748 28.4641 16.6278C28.7298 16.6808 28.9689 16.8243 29.1408 17.0338C29.3125 17.2434 29.4063 17.506 29.4061 17.777C29.4048 18.0873 29.2815 18.3847 29.0628 18.6048Z" ></path>
  </symbol>
  <symbol xmlns="http://www.w3.org/2000/svg" viewBox="0 0 19 23" id="play">
    <path d="M18.8237 11.5001L0.859375 22.5781V0.422119L18.8237 11.5001Z" ></path>
  </symbol>
  <symbol xmlns="http://www.w3.org/2000/svg" viewBox="0 0 85 12" id="stars">
    <path d="M11.1708 4.23235C11.0975 3.99569 10.8963 3.82761 10.6583 3.80523L7.42571 3.49894L6.14745 0.376912C6.05319 0.148108 5.83854 0 5.60005 0C5.36155 0 5.1469 0.148108 5.05264 0.377447L3.77438 3.49894L0.541247 3.80523C0.303692 3.82815 0.103053 3.99569 0.0293084 4.23235C-0.0444361 4.469 0.0236686 4.72856 0.203373 4.89219L2.64685 7.12833L1.92633 10.4403C1.8736 10.6838 1.96418 10.9355 2.15781 11.0816C2.26189 11.1601 2.38366 11.2 2.50645 11.2C2.61233 11.2 2.71735 11.1702 2.8116 11.1114L5.60005 9.37233L8.38746 11.1114C8.59144 11.2394 8.84856 11.2277 9.04176 11.0816C9.23548 10.9351 9.32597 10.6833 9.27325 10.4403L8.55273 7.12833L10.9962 4.89263C11.1759 4.72856 11.2445 4.46944 11.1708 4.23235Z" fill="#FF3D2E"></path>
    <path d="M29.5692 4.23235C29.4959 3.99569 29.2948 3.82761 29.0568 3.80523L25.8241 3.49894L24.5459 0.376912C24.4516 0.148108 24.237 0 23.9985 0C23.76 0 23.5453 0.148108 23.4511 0.377447L22.1728 3.49894L18.9397 3.80523C18.7021 3.82815 18.5015 3.99569 18.4277 4.23235C18.354 4.469 18.4221 4.72856 18.6018 4.89219L21.0453 7.12833L20.3248 10.4403C20.272 10.6838 20.3626 10.9355 20.5563 11.0816C20.6603 11.1601 20.7821 11.2 20.9049 11.2C21.0108 11.2 21.1158 11.1702 21.21 11.1114L23.9985 9.37233L26.7859 11.1114C26.9899 11.2394 27.247 11.2277 27.4402 11.0816C27.6339 10.9351 27.7244 10.6833 27.6717 10.4403L26.9512 7.12833L29.3946 4.89263C29.5743 4.72856 29.643 4.46944 29.5692 4.23235Z" fill="#FF3D2E"></path>
    <path d="M47.9716 4.23235C47.8982 3.99569 47.6971 3.82761 47.4591 3.80523L44.2265 3.49894L42.9482 0.376912C42.854 0.148108 42.6393 0 42.4008 0C42.1623 0 41.9477 0.148108 41.8534 0.377447L40.5752 3.49894L37.342 3.80523C37.1045 3.82815 36.9038 3.99569 36.8301 4.23235C36.7563 4.469 36.8244 4.72856 37.0042 4.89219L39.4476 7.12833L38.7271 10.4403C38.6744 10.6838 38.765 10.9355 38.9586 11.0816C39.0627 11.1601 39.1844 11.2 39.3072 11.2C39.4131 11.2 39.5181 11.1702 39.6124 11.1114L42.4008 9.37233L45.1882 11.1114C45.3922 11.2394 45.6493 11.2277 45.8425 11.0816C46.0363 10.9351 46.1268 10.6833 46.074 10.4403L45.3535 7.12833L47.797 4.89263C47.9767 4.72856 48.0453 4.46944 47.9716 4.23235Z" fill="#FF3D2E"></path>
    <path d="M66.37 4.23235C66.2967 3.99569 66.0955 3.82761 65.8575 3.80523L62.6249 3.49894L61.3467 0.376912C61.2524 0.148108 61.0378 0 60.7993 0C60.5608 0 60.3461 0.148108 60.2519 0.377447L58.9736 3.49894L55.7405 3.80523C55.5029 3.82815 55.3023 3.99569 55.2285 4.23235C55.1548 4.469 55.2229 4.72856 55.4026 4.89219L57.8461 7.12833L57.1255 10.4403C57.0728 10.6838 57.1634 10.9355 57.357 11.0816C57.4611 11.1601 57.5829 11.2 57.7057 11.2C57.8115 11.2 57.9166 11.1702 58.0108 11.1114L60.7993 9.37233L63.5867 11.1114C63.7907 11.2394 64.0478 11.2277 64.241 11.0816C64.4347 10.9351 64.5252 10.6833 64.4725 10.4403L63.7519 7.12833L66.1954 4.89263C66.3751 4.72856 66.4437 4.46944 66.37 4.23235Z" fill="#FF3D2E"></path>
    <path d="M84.7723 4.23235C84.699 3.99569 84.4979 3.82761 84.2599 3.80523L81.0273 3.49894L79.749 0.376912C79.6548 0.148108 79.4401 0 79.2016 0C78.9631 0 78.7485 0.148108 78.6542 0.377447L77.3759 3.49894L74.1428 3.80523C73.9053 3.82815 73.7046 3.99569 73.6309 4.23235C73.5571 4.469 73.6252 4.72856 73.8049 4.89219L76.2484 7.12833L75.5279 10.4403C75.4752 10.6838 75.5657 10.9355 75.7594 11.0816C75.8635 11.1601 75.9852 11.2 76.108 11.2C76.2139 11.2 76.3189 11.1702 76.4132 11.1114L79.2016 9.37233L81.989 11.1114C82.193 11.2394 82.4501 11.2277 82.6433 11.0816C82.837 10.9351 82.9275 10.6833 82.8748 10.4403L82.1543 7.12833L84.5978 4.89263C84.7775 4.72856 84.8461 4.46944 84.7723 4.23235Z" fill="#FF3D2E"></path>
  </symbol>
  <symbol xmlns="http://www.w3.org/2000/svg" viewBox="0 0 47 46" id="telegram">
    <path d="M14.3352 22.6687L18.7134 24.2528L20.4075 29.5235C20.4325 29.6016 20.477 29.6723 20.5369 29.7298C20.5968 29.7874 20.6706 29.8297 20.7513 29.8532C20.8322 29.8768 20.9178 29.8807 21.0006 29.8648C21.0834 29.8488 21.1608 29.8134 21.2262 29.7618L23.6669 27.8376C23.7915 27.7395 23.946 27.6841 24.1065 27.6799C24.267 27.6755 24.4245 27.7227 24.5545 27.8139L28.9562 30.9048C29.026 30.9538 29.1072 30.985 29.1926 30.9958C29.2781 31.0066 29.3649 30.9966 29.4451 30.9666C29.5256 30.9364 29.5968 30.8875 29.6527 30.8242C29.7084 30.7607 29.7469 30.6848 29.7645 30.6032L32.9892 15.6008C33.0081 15.5129 33.0021 15.4219 32.972 15.3369C32.9418 15.2521 32.8884 15.1767 32.8178 15.1187C32.7471 15.0606 32.6615 15.022 32.57 15.007C32.4785 14.992 32.3846 15.0012 32.298 15.0335L14.3305 21.7353C14.2329 21.7718 14.1488 21.836 14.0899 21.9197C14.0308 22.0033 13.9994 22.1023 14 22.2036C14.0006 22.3048 14.0329 22.4034 14.0927 22.4866C14.1526 22.5697 14.2372 22.6331 14.3352 22.6687ZM20.1352 23.4105L28.691 18.3112C28.7225 18.2881 28.7622 18.278 28.8015 18.2832C28.8407 18.2884 28.8761 18.3084 28.9 18.3389C28.924 18.3693 28.9344 18.4077 28.9291 18.4456C28.9237 18.4836 28.903 18.5178 28.8715 18.5409L21.8097 24.889C21.5619 25.1122 21.4016 25.4114 21.356 25.7359L21.1185 27.4601C21.1119 27.5089 21.0881 27.5538 21.0511 27.5876C21.0142 27.6214 20.9663 27.6418 20.9156 27.6454C20.865 27.649 20.8145 27.6355 20.7729 27.6074C20.7312 27.5793 20.7009 27.538 20.687 27.4907L19.7615 24.347C19.7101 24.1729 19.7188 23.9872 19.7862 23.8182C19.8536 23.6493 19.9762 23.5061 20.1352 23.4105Z" ></path>
  </symbol>
</svg>