<svg width="47" height="46" viewBox="0 0 47 46" fill="none" xmlns="http://www.w3.org/2000/svg">
<path d="M26.7188 16.0163H33.1086V17.4979H26.7188V16.0163ZM20.3164 21.8785C21.7288 21.2325 22.4687 20.2499 22.4687 18.7315C22.4687 15.7285 20.1305 15 17.4306 15H10V30.0733H17.6387C20.5022 30.0733 23.1893 28.7568 23.1893 25.6958C23.1893 23.8039 22.2541 22.4049 20.3164 21.8785ZM13.4655 17.5714H16.7163C17.9687 17.5714 19.0928 17.9051 19.0928 19.2948C19.0928 20.5744 18.2185 21.0886 16.9789 21.0886H13.4655V17.5714ZM17.1648 27.5142H13.4623V23.3631H17.2385C18.763 23.3631 19.7271 23.9723 19.7271 25.5152C19.7271 27.0336 18.5772 27.5142 17.1648 27.5142ZM35.6068 24.7743C35.6068 21.5448 33.6307 18.854 30.0562 18.854C26.581 18.854 24.2174 21.355 24.2174 24.6335C24.2174 28.0314 26.4562 30.3641 30.0562 30.3641C32.7819 30.3641 34.5467 29.1916 35.3953 26.6907H32.6313C32.3302 27.6242 31.1068 28.1141 30.1556 28.1141C28.3172 28.1141 27.3563 27.0857 27.3563 25.3376H35.5843C35.5939 25.157 35.6068 24.9672 35.6068 24.7743ZM27.3563 23.4458C27.4555 22.0101 28.458 21.1132 29.957 21.1132C31.5328 21.1132 32.3207 21.9979 32.4584 23.4458H27.3563Z" fill="black"/>
</svg>
