<svg width="47" height="46" viewBox="0 0 47 46" fill="none" xmlns="http://www.w3.org/2000/svg">
<path d="M23.5 34C17.7133 34 13 29.2867 13 23.5C13 17.7133 17.7133 13 23.5 13C29.2867 13 34 17.7133 34 23.5C34 29.2867 29.2867 34 23.5 34ZM32.3573 24.9373C32.0493 24.8393 29.5807 24.102 26.7667 24.5547C27.938 27.7793 28.4187 30.402 28.512 30.948C30.5233 29.5853 31.956 27.4293 32.3573 24.9373ZM27.0047 31.7693C26.8693 30.9853 26.3467 28.2413 25.0913 24.97L25.0353 24.9887C19.972 26.7527 18.1567 30.262 18.0027 30.5933C19.5147 31.7787 21.4327 32.488 23.5047 32.488C24.7413 32.4833 25.922 32.2313 27.0047 31.7693ZM16.8407 29.5107C17.0413 29.1607 19.5053 25.0867 24.13 23.5887C24.2467 23.5467 24.3633 23.514 24.48 23.4813C24.256 22.968 24.0087 22.4593 23.752 21.96C19.2767 23.2947 14.932 23.2433 14.5353 23.2293L14.5307 23.5047C14.5353 25.8147 15.408 27.9193 16.8407 29.5107ZM14.7173 21.6753C15.1187 21.6847 18.8147 21.6987 23.01 20.5833C21.5213 17.942 19.9207 15.7207 19.6827 15.394C17.1767 16.5793 15.3053 18.8893 14.7173 21.6753ZM21.4 14.7967C21.6473 15.1327 23.276 17.3447 24.7413 20.0467C27.9287 18.852 29.282 17.0367 29.4453 16.808C27.8587 15.394 25.7773 14.5447 23.5 14.5447C22.7767 14.5447 22.0767 14.6287 21.4 14.7967ZM30.444 17.844C30.2573 18.096 28.75 20.0233 25.4367 21.3767C25.6467 21.806 25.8473 22.24 26.034 22.6787C26.104 22.8373 26.1647 22.9913 26.2253 23.1407C29.212 22.7627 32.1753 23.3693 32.474 23.43C32.4553 21.3113 31.704 19.37 30.4533 17.844H30.444Z" fill="black"/>
</svg>
