<svg width="47" height="46" viewBox="0 0 47 46" fill="none" xmlns="http://www.w3.org/2000/svg">
<path d="M27.0332 14H18.9668C17.6499 14.0014 16.3874 14.5251 15.4563 15.4563C14.5251 16.3874 14.0014 17.6499 14 18.9668V27.0319C14.0014 28.3489 14.5251 29.6115 15.4562 30.5428C16.3873 31.4743 17.6498 31.9983 18.9668 32H27.0332C28.3502 31.9983 29.6127 31.4743 30.5438 30.5428C31.4749 29.6115 31.9986 28.3489 32 27.0319V18.9668C31.9986 17.6499 31.4749 16.3874 30.5437 15.4563C29.6126 14.5251 28.3501 14.0014 27.0332 14ZM22.9993 27.0812C22.185 27.0812 21.3888 26.8396 20.7115 26.3871C20.0343 25.9346 19.5066 25.2914 19.1949 24.5389C18.8833 23.7865 18.8019 22.9585 18.9609 22.1596C19.1198 21.3608 19.5122 20.6271 20.0882 20.0512C20.6642 19.4755 21.398 19.0834 22.1968 18.9247C22.9957 18.7659 23.8237 18.8476 24.5761 19.1595C25.3285 19.4714 25.9714 19.9994 26.4237 20.6767C26.876 21.3541 27.1173 22.1503 27.1171 22.9647C27.1146 24.056 26.6799 25.1018 25.9082 25.8733C25.1365 26.6448 24.0906 27.079 22.9993 27.0812ZM29.0628 18.6048C28.8711 18.7964 28.6189 18.9154 28.3492 18.942C28.0796 18.9684 27.8091 18.9004 27.5839 18.7498C27.3586 18.5992 27.1926 18.3751 27.1141 18.1158C27.0356 17.8564 27.0494 17.5779 27.1532 17.3276C27.257 17.0773 27.4444 16.8708 27.6835 16.7432C27.9224 16.6155 28.1984 16.5748 28.4641 16.6278C28.7298 16.6808 28.9689 16.8243 29.1408 17.0338C29.3125 17.2434 29.4063 17.506 29.4061 17.777C29.4048 18.0873 29.2815 18.3847 29.0628 18.6048Z" fill="black"/>
</svg>
