<svg width="46" height="46" viewBox="0 0 46 46" fill="none" xmlns="http://www.w3.org/2000/svg">
<path d="M31.9957 32V31.9993H32V25.368C32 22.124 31.3277 19.625 27.6765 19.625C25.9213 19.625 24.7435 20.6255 24.2626 21.574H24.2118V19.9279H20.75V31.9993H24.3547V26.0219C24.3547 24.4481 24.6419 22.9263 26.5183 22.9263C28.367 22.9263 28.3946 24.7224 28.3946 26.1229V32H31.9957Z" fill="black"/>
<path d="M14 19.625H18.5V32H14V19.625Z" fill="black"/>
<path d="M16.25 14C15.0079 14 14 15.0032 14 16.2395C14 17.4758 15.0079 18.5 16.25 18.5C17.4921 18.5 18.5 17.4758 18.5 16.2395C18.4992 15.0032 17.4913 14 16.25 14Z" fill="black"/>
</svg>
