<svg width="47" height="46" viewBox="0 0 47 46" fill="none" xmlns="http://www.w3.org/2000/svg">
<path d="M14.3352 22.6687L18.7134 24.2528L20.4075 29.5235C20.4325 29.6016 20.477 29.6723 20.5369 29.7298C20.5968 29.7874 20.6706 29.8297 20.7513 29.8532C20.8322 29.8768 20.9178 29.8807 21.0006 29.8648C21.0834 29.8488 21.1608 29.8134 21.2262 29.7618L23.6669 27.8376C23.7915 27.7395 23.946 27.6841 24.1065 27.6799C24.267 27.6755 24.4245 27.7227 24.5545 27.8139L28.9562 30.9048C29.026 30.9538 29.1072 30.985 29.1926 30.9958C29.2781 31.0066 29.3649 30.9966 29.4451 30.9666C29.5256 30.9364 29.5968 30.8875 29.6527 30.8242C29.7084 30.7607 29.7469 30.6848 29.7645 30.6032L32.9892 15.6008C33.0081 15.5129 33.0021 15.4219 32.972 15.3369C32.9418 15.2521 32.8884 15.1767 32.8178 15.1187C32.7471 15.0606 32.6615 15.022 32.57 15.007C32.4785 14.992 32.3846 15.0012 32.298 15.0335L14.3305 21.7353C14.2329 21.7718 14.1488 21.836 14.0899 21.9197C14.0308 22.0033 13.9994 22.1023 14 22.2036C14.0006 22.3048 14.0329 22.4034 14.0927 22.4866C14.1526 22.5697 14.2372 22.6331 14.3352 22.6687ZM20.1352 23.4105L28.691 18.3112C28.7225 18.2881 28.7622 18.278 28.8015 18.2832C28.8407 18.2884 28.8761 18.3084 28.9 18.3389C28.924 18.3693 28.9344 18.4077 28.9291 18.4456C28.9237 18.4836 28.903 18.5178 28.8715 18.5409L21.8097 24.889C21.5619 25.1122 21.4016 25.4114 21.356 25.7359L21.1185 27.4601C21.1119 27.5089 21.0881 27.5538 21.0511 27.5876C21.0142 27.6214 20.9663 27.6418 20.9156 27.6454C20.865 27.649 20.8145 27.6355 20.7729 27.6074C20.7312 27.5793 20.7009 27.538 20.687 27.4907L19.7615 24.347C19.7101 24.1729 19.7188 23.9872 19.7862 23.8182C19.8536 23.6493 19.9762 23.5061 20.1352 23.4105Z" fill="black"/>
</svg>
